Coordinates
nRows=4
nColumns=38

# SIMM Motion File Header:
name Coordinates
datacolumns 38
datarows 4
otherdata 1
range 1.99479999999999990000 1.99779999999999980000

Units are S.I. units (second, meters, Newtons, ...)
Angles are in degrees.

endheader
time	pelvis_tilt	pelvis_list	pelvis_rotation	pelvis_tx	pelvis_ty	pelvis_tz	hip_flexion_r	hip_adduction_r	hip_rotation_r	knee_angle_r	ankle_angle_r	subtalar_angle_r	mtp_angle_r	hip_flexion_l	hip_adduction_l	hip_rotation_l	knee_angle_l	ankle_angle_l	subtalar_angle_l	mtp_angle_l	lumbar_extension	lumbar_bending	lumbar_rotation	arm_flex_r	arm_add_r	arm_rot_r	elbow_flex_r	pro_sup_r	wrist_flex_r	wrist_dev_r	arm_flex_l	arm_add_l	arm_rot_l	elbow_flex_l	pro_sup_l	wrist_flex_l	wrist_dev_l
      1.99479999999999990000	     -4.55248978534662370000	     -4.39696353950072980000	     -4.65858196832965630000	      1.13752752384904790000	      1.01545616468733630000	     -0.34780416988198903000	     31.63894616236224200000	      9.70422619860370080000	     -0.04103309785194167400	    -14.93790674690336600000	    -18.17662177961850400000	      0.00000000000000000000	      0.00000000000000000000	     -7.93315740502649900000	      3.03891722229301080000	     -1.41324450641573820000	    -71.77358377297648000000	    -28.80343529852735100000	      0.00000000000000000000	      0.00000000000000000000	     -2.89916203422784010000	      6.22949042591824580000	     -7.94293001549189270000	    -49.50286982857357300000	     -8.16281806805839770000	    -19.43701251916348100000	     73.51181256696654000000	     62.52120389566776000000	      0.00000000000000000000	      0.00000000000000000000	    -28.15811734004949300000	    -17.32932256868437200000	      7.45996591467059120000	    128.94141564006350000000	     90.61302166043319100000	      0.00000000000000000000	      0.00000000000000000000
      1.99579999999999980000	     -4.43432426681716580000	     -4.46731421508175330000	     -4.68302066198637320000	      1.13755856512948590000	      1.01505263928409040000	     -0.34780838363208511000	     31.47546968391298700000	      9.78955669287575070000	     -0.03031620540403114400	    -15.09178463403541700000	    -18.24540326118214400000	     -0.00000000000000000154	      0.00000000000000000257	     -7.84253319852372940000	      2.93681191977497000000	     -1.55122776897463480000	    -72.43696701970135600000	    -28.64934699026603200000	     -0.00000000000000000052	     -0.00000000000000000159	     -3.04428716815785090000	      6.32962447742100580000	     -7.81853761115135180000	    -49.41696005725391700000	     -8.15597970415577580000	    -19.38117179452103000000	     73.51945137464079500000	     62.55373721596309600000	      0.00000000000000000071	      0.00000000000000000039	    -28.26557025965080400000	    -17.29203622450940300000	      7.39085225489054930000	    128.58295038492065000000	     90.70366847370776500000	      0.00000000000000000002	      0.00000000000000000003
      1.99679999999999990000	     -4.31723473991743670000	     -4.53748380760174990000	     -4.70745654347209540000	      1.13758933373430300000	      1.01463827798675580000	     -0.34781190576668874000	     31.31391867091554100000	      9.87536278049861240000	     -0.01155376130483294500	    -15.25397840289605400000	    -18.30493797791161000000	     -0.00000000000000000264	      0.00000000000000000625	     -7.75037489332945380000	      2.83374714534873860000	     -1.68792339340482390000	    -73.09955984804386700000	    -28.48704965857680100000	      0.00000000000000000022	     -0.00000000000000000690	     -3.18807154761545420000	      6.42940657630146810000	     -7.69435438240023740000	    -49.32860220836543200000	     -8.15145868098070990000	    -19.32352277115859700000	     73.52586138505277800000	     62.58850770713430500000	      0.00000000000000000082	      0.00000000000000000383	    -28.37396524545763700000	    -17.25401794019940400000	      7.32000447751000220000	    128.22263240224009000000	     90.79795399894182100000	      0.00000000000000000099	     -0.00000000000000000042
      1.99779999999999980000	     -4.20127043219303160000	     -4.60744445571116760000	     -4.73187177059190220000	      1.13761978352638790000	      1.01421311717921240000	     -0.34781490623405475000	     31.15436010658123300000	      9.96145338162132890000	      0.01347663976502118900	    -15.42436244829455600000	    -18.35893776555357000000	      0.00000000000000000001	      0.00000000000000001393	     -7.65661407517135740000	      2.72976215454342120000	     -1.82328832943386040000	    -73.76135386513186600000	    -28.31653322382720000000	      0.00000000000000000079	     -0.00000000000000000966	     -3.33046041647794230000	      6.52882616085804200000	     -7.57042096369859950000	    -49.23775232115296800000	     -8.14929309258950060000	    -19.26405628968562000000	     73.53105197652202200000	     62.62543368120199000000	      0.00000000000000000057	      0.00000000000000000985	    -28.48328953720879800000	    -17.21524803578603300000	      7.24748151055984290000	    127.86044049093191000000	     90.89593147587224600000	      0.00000000000000000190	     -0.00000000000000000109
